<svg width="469" height="157" viewBox="0 0 469 157" fill="none" xmlns="http://www.w3.org/2000/svg">
<path d="M35.2098 155.07L21.2598 96.1702L457.15 82.7102L438.53 155.07" stroke="black" stroke-width="2" stroke-linecap="round" stroke-linejoin="round"/>
<path d="M467.23 53.6601L456.63 66.7401C449.63 70.2601 439.1 75.1901 425.99 80.2401C410.57 86.1701 361.94 103.64 237.99 103.85C223.3 103.85 172.24 98.5301 70.72 87.8501C58.66 86.5801 34.15 83.7 14.09 67.36C9.15585 63.3411 4.7567 58.7067 1 53.5701C2.61333 64.7567 4.22001 75.9467 5.82001 87.1401C11.67 114.86 112.53 136.92 236.14 136.92C361.14 136.92 462.86 114.34 466.57 86.1801L467.23 85.7601V53.6601Z" fill="white" stroke="black" stroke-width="2" stroke-linecap="round" stroke-linejoin="round"/>
<path d="M450.19 66.4702C422.19 86.0102 336.26 100.24 234.6 100.24C132.94 100.24 47.0798 86.0102 19.0498 66.4702C47.0498 46.9302 132.98 32.7102 234.6 32.7102C336.22 32.7102 422.16 46.9302 450.19 66.4702Z" fill="black"/>
<path d="M234.1 1C362.86 1 467.23 24.57 467.23 53.66C467.23 82.75 362.86 106.32 234.1 106.32C105.34 106.32 1 82.75 1 53.66C1 24.57 105.39 1 234.1 1ZM234.6 100.24C359.02 100.24 459.85 78.93 459.85 52.65C459.85 26.37 359.02 5.07001 234.6 5.07001C110.18 5.07001 9.39001 26.37 9.39001 52.65C9.39001 78.93 110.23 100.24 234.6 100.24Z" fill="white"/>
<path d="M234.1 1C362.86 1 467.23 24.57 467.23 53.66C467.23 82.75 362.86 106.32 234.1 106.32C105.34 106.32 1 82.75 1 53.66C1 24.57 105.39 1 234.1 1ZM234.6 100.24C359.02 100.24 459.85 78.93 459.85 52.65C459.85 26.37 359.02 5.07001 234.6 5.07001C110.18 5.07001 9.39001 26.37 9.39001 52.65C9.39001 78.93 110.23 100.24 234.6 100.24Z" stroke="black" stroke-width="2" stroke-linecap="round" stroke-linejoin="round"/>
<path d="M450.19 66.4702C422.19 86.0102 336.26 100.24 234.6 100.24C132.94 100.24 47.0798 86.0102 19.0498 66.4702C47.0498 46.9302 132.98 32.7102 234.6 32.7102C336.22 32.7102 422.16 46.9302 450.19 66.4702Z" fill="black"/>
<path d="M234.1 1C362.86 1 467.23 24.57 467.23 53.66C467.23 82.75 362.86 106.32 234.1 106.32C105.34 106.32 1 82.75 1 53.66C1 24.57 105.39 1 234.1 1ZM234.6 100.24C359.02 100.24 459.85 78.93 459.85 52.65C459.85 26.37 359.02 5.07001 234.6 5.07001C110.18 5.07001 9.39001 26.37 9.39001 52.65C9.39001 78.93 110.23 100.24 234.6 100.24Z" fill="white"/>
<path d="M234.1 1C362.86 1 467.23 24.57 467.23 53.66C467.23 82.75 362.86 106.32 234.1 106.32C105.34 106.32 1 82.75 1 53.66C1 24.57 105.39 1 234.1 1ZM234.6 100.24C359.02 100.24 459.85 78.93 459.85 52.65C459.85 26.37 359.02 5.07001 234.6 5.07001C110.18 5.07001 9.39001 26.37 9.39001 52.65C9.39001 78.93 110.23 100.24 234.6 100.24Z" fill="white" stroke="black" stroke-width="2" stroke-linecap="round" stroke-linejoin="round"/>
</svg>
