<svg width="214" height="436" viewBox="0 0 214 436" fill="none" xmlns="http://www.w3.org/2000/svg">
<path d="M183.087 188.264C183.087 191.063 179.866 193.337 175.884 193.337C171.901 193.337 168.68 191.063 168.68 188.264C168.68 185.465 171.901 183.191 175.884 183.191C179.866 183.191 183.087 185.455 183.087 188.264Z" fill="#63D782"/>
<path fill-rule="evenodd" clip-rule="evenodd" d="M171.382 185.519C170.269 186.303 169.71 187.289 169.71 188.264C169.71 189.239 170.269 190.225 171.382 191.009C172.492 191.791 174.08 192.308 175.884 192.308C177.689 192.308 179.277 191.791 180.386 191.009C181.499 190.225 182.058 189.239 182.058 188.264C182.058 187.283 181.498 186.298 180.387 185.515C179.278 184.735 177.69 184.22 175.884 184.22C174.08 184.22 172.492 184.737 171.382 185.519ZM170.196 183.837C171.693 182.782 173.706 182.162 175.884 182.162C178.061 182.162 180.075 182.779 181.572 183.832C183.066 184.884 184.117 186.435 184.117 188.264C184.117 190.088 183.066 191.639 181.572 192.691C180.076 193.746 178.062 194.366 175.884 194.366C173.706 194.366 171.693 193.746 170.196 192.691C168.703 191.639 167.652 190.088 167.652 188.264C167.652 186.44 168.703 184.889 170.196 183.837Z" fill="black"/>
<path fill-rule="evenodd" clip-rule="evenodd" d="M174.413 181.585C174.416 185.711 174.19 189.833 173.733 193.934C171.078 217.725 160.891 238.183 146.546 250.778H79.8639C77.3988 248.616 75.0977 246.273 72.9796 243.77C68.0864 237.958 64.0335 231.487 60.9398 224.548C58.2053 218.49 56.0951 212.17 54.6421 205.685C54.1893 203.73 53.7982 201.734 53.4689 199.717C51.4658 187.534 51.4937 175.103 53.5513 162.928H172.92C173.699 167.472 174.187 172.061 174.382 176.666C174.413 178.302 174.413 179.939 174.413 181.585Z" fill="#EBEFDE"/>
<path fill-rule="evenodd" clip-rule="evenodd" d="M52.5364 162.757C52.62 162.262 53.0489 161.9 53.551 161.9H172.92C173.422 161.9 173.85 162.261 173.934 162.755C174.72 167.342 175.213 171.974 175.41 176.623C175.41 176.631 175.41 176.639 175.41 176.647C175.441 178.293 175.441 179.936 175.441 181.579V181.584C175.445 185.748 175.216 189.909 174.756 194.048L174.756 194.048C172.078 218.048 161.795 238.759 147.225 251.552C147.037 251.716 146.796 251.807 146.546 251.807H79.8637C79.614 251.807 79.3728 251.717 79.1851 251.552C76.6817 249.356 74.3448 246.977 72.1938 244.435L72.1922 244.433C67.2374 238.548 63.1336 231.996 60.0007 224.969C57.2384 218.85 55.1066 212.465 53.6385 205.914C53.1808 203.937 52.7858 201.92 52.4532 199.884C50.4318 187.588 50.4598 175.043 52.5364 162.757ZM54.4242 163.958C52.5268 175.746 52.5464 187.765 54.4841 199.55L54.4843 199.551C54.8101 201.547 55.1969 203.521 55.6443 205.453L55.646 205.461C57.0837 211.877 59.1717 218.131 61.8775 224.124L61.8794 224.129C64.9337 230.98 68.9348 237.368 73.7655 243.106C75.7674 245.472 77.9354 247.692 80.2528 249.749H146.156C160.125 237.33 170.097 217.241 172.71 193.82C173.162 189.758 173.387 185.674 173.383 181.586V181.585C173.383 179.941 173.383 178.319 173.353 176.698C173.172 172.429 172.736 168.175 172.049 163.958H54.4242Z" fill="black"/>
<path fill-rule="evenodd" clip-rule="evenodd" d="M171.768 162.959C171.768 162.959 165.769 165.954 151.311 168.28C147.318 168.918 142.687 169.504 137.357 169.967C130.504 170.564 122.487 170.945 113.205 170.945C104.438 170.945 96.7406 170.605 90.1958 170.06C89.1668 169.978 88.1377 169.895 87.1704 169.792C63.9243 167.59 54.6423 162.959 54.6423 162.959C123.856 160.294 171.768 162.959 171.768 162.959Z" fill="black"/>
<path d="M170.41 142.945C169.227 148.522 167.271 153.667 164.153 157.073L163.906 157.31C161.601 159.584 157.135 161.118 151.249 161.931L149.767 162.167C111.693 168.897 82.406 164.75 82.406 164.75C83.1366 161.879 84.2789 157.691 85.9974 152.299C85.9974 152.299 86.0797 152.021 86.162 151.764C88.8397 144.002 92.2474 136.511 96.3393 129.392C102.369 119.441 111.003 111.775 123.208 101.083C129.176 95.8658 137.614 88.8683 148.213 81.1196C148.893 100.694 144.922 120.15 136.626 137.892C144.923 125.654 157.406 116.871 171.727 113.195C171.789 114.358 172.931 131.152 170.41 142.945Z" fill="#63D782"/>
<path fill-rule="evenodd" clip-rule="evenodd" d="M148.663 80.1944C149.006 80.3609 149.228 80.7033 149.242 81.0842C149.834 98.1433 146.923 115.114 140.721 130.956C148.834 121.827 159.524 115.265 171.471 112.198C171.77 112.122 172.087 112.183 172.336 112.366C172.584 112.548 172.738 112.833 172.754 113.141C172.757 113.19 172.762 113.271 172.768 113.381C172.909 115.754 173.858 131.735 171.416 143.159C170.219 148.802 168.214 154.161 164.912 157.768C164.897 157.785 164.881 157.801 164.865 157.817L164.629 158.043C164.627 158.045 164.625 158.046 164.623 158.048C162.064 160.569 157.308 162.132 151.4 162.949L149.938 163.182C130.826 166.56 113.921 167.208 101.792 167.012C95.7254 166.913 90.8511 166.604 87.4897 166.318C85.8089 166.176 84.5061 166.039 83.6214 165.938C83.1791 165.887 82.8412 165.845 82.6129 165.816C82.4988 165.801 82.412 165.79 82.3532 165.782L82.2861 165.773L82.2685 165.77L82.2636 165.77L82.2622 165.769C82.2618 165.769 82.2615 165.769 82.4058 164.75L82.2615 165.769C81.972 165.728 81.7137 165.566 81.551 165.323C81.3882 165.08 81.3364 164.78 81.4085 164.497C82.1431 161.61 83.2899 157.405 85.0136 151.996L85.0146 151.993L85.0255 151.956C85.0348 151.925 85.0481 151.881 85.064 151.829C85.0956 151.725 85.1384 151.586 85.1817 151.45C85.184 151.443 85.1865 151.435 85.189 151.428C87.8879 143.605 91.3226 136.055 95.4469 128.88C95.4508 128.873 95.4549 128.866 95.459 128.859C101.587 118.747 110.352 110.978 122.529 100.309L122.53 100.309C128.517 95.0751 136.979 88.0583 147.606 80.2891C147.913 80.0642 148.32 80.0278 148.663 80.1944ZM83.6944 163.874C83.7465 163.88 83.8002 163.887 83.8556 163.893C84.7213 163.992 86.004 164.127 87.6638 164.268C90.9834 164.55 95.8105 164.856 101.825 164.954C113.856 165.148 130.629 164.505 149.588 161.154L149.605 161.151L151.087 160.915C151.094 160.913 151.101 160.912 151.108 160.911C156.963 160.103 161.133 158.601 163.183 156.578L163.194 156.567L163.416 156.354C166.337 153.149 168.237 148.229 169.403 142.731L169.403 142.73C171.557 132.657 171 118.825 170.771 114.517C157.202 118.305 145.399 126.786 137.478 138.47C137.177 138.914 136.585 139.052 136.118 138.787C135.651 138.522 135.467 137.943 135.694 137.456C143.644 120.454 147.589 101.863 147.237 83.1143C137.407 90.3784 129.534 96.9194 123.885 101.858C111.658 112.569 103.158 120.131 97.2252 129.916C93.1704 136.971 89.793 144.395 87.1384 152.088C87.1005 152.207 87.0624 152.331 87.0332 152.427C87.0182 152.476 87.0058 152.518 86.9971 152.547L86.9871 152.58L86.9839 152.591" fill="black"/>
<path d="M104.849 157.289C104.849 157.289 111.734 153.286 124.679 125.811C137.625 98.3355 138.54 64.5623 138.54 64.5623C138.54 64.5623 105.518 99.2719 98.881 127.509C92.2437 155.746 91.6777 160.521 91.6777 160.521C94.0136 151.198 98.5208 127.499 86.8515 103.357C83.7828 97.0182 79.8561 91.1317 75.1821 85.8635C73.2681 90.381 60.5079 121.88 77.0755 149.037C81.192 155.706 86.6138 161.474 93.0154 165.995L104.849 157.289Z" fill="black"/>
<path fill-rule="evenodd" clip-rule="evenodd" d="M139.569 64.5899L138.54 64.562L137.794 63.8527C138.088 63.5441 138.541 63.4483 138.935 63.6118C139.328 63.7752 139.58 64.1641 139.569 64.5899ZM105.426 158.143C105.447 158.129 105.473 158.112 105.504 158.092C105.575 158.044 105.672 157.975 105.795 157.881C106.04 157.694 106.387 157.406 106.835 156.981C107.731 156.131 109.034 154.727 110.732 152.472C114.125 147.965 119.117 140.029 125.61 126.249C132.141 112.387 135.626 96.9666 137.481 85.0412C138.409 79.0728 138.931 73.9667 139.22 70.3506C139.365 68.5423 139.452 67.1059 139.503 66.1198C139.528 65.6268 139.545 65.2462 139.555 64.988C139.56 64.8589 139.563 64.7603 139.565 64.6936L139.568 64.6174L139.569 64.5922L139.569 64.5907C139.569 64.5902 139.569 64.5899 138.54 64.562C137.794 63.8527 137.794 63.853 137.794 63.8534L137.793 63.8548L137.788 63.86L137.769 63.8798C137.752 63.8972 137.728 63.9229 137.696 63.9568C137.632 64.0246 137.538 64.1251 137.415 64.257C137.169 64.5207 136.808 64.9101 136.348 65.4152C135.427 66.4253 134.105 67.898 132.499 69.753C129.287 73.4623 124.935 78.7035 120.374 84.8321C111.277 97.0551 101.249 112.935 97.8789 127.273C96.9983 131.02 96.2244 134.354 95.5444 137.319C95.4844 127.124 93.6584 115.075 87.7776 102.909L87.7773 102.909C84.6675 96.4846 80.6882 90.5192 75.9515 85.1803C75.7171 84.9162 75.3637 84.7907 75.0153 84.8478C74.6668 84.9049 74.372 85.1367 74.2342 85.4618C73.2597 87.7618 69.5499 96.8691 68.1755 108.843C66.8012 120.816 67.7541 135.734 76.1967 149.572L76.1995 149.577C80.3888 156.364 85.9065 162.234 92.4214 166.836C92.7833 167.091 93.268 167.086 93.6249 166.824L105.426 158.143ZM104.329 156.401L104.328 156.402L104.326 156.403L104.323 156.405C104.327 156.403 104.338 156.396 104.355 156.384C104.391 156.36 104.455 156.315 104.545 156.246C104.727 156.107 105.019 155.867 105.419 155.488C106.218 154.729 107.446 153.415 109.087 151.234C112.372 146.872 117.295 139.068 123.748 125.372C130.162 111.759 133.607 96.5551 135.447 84.725C136.366 78.8157 136.882 73.7612 137.169 70.1862C137.256 69.097 137.322 68.1454 137.372 67.3491C136.506 68.3062 135.378 69.5719 134.055 71.1002C130.867 74.7814 126.549 79.9824 122.025 86.0609C112.951 98.252 103.149 113.845 99.8824 127.744C97.3147 138.668 95.657 146.074 94.5898 151.049C94.011 155.073 93.272 158.39 92.6755 160.771C92.5436 161.297 92.0252 161.631 91.4913 161.533C90.9574 161.434 90.5915 160.938 90.6554 160.399L91.6773 160.52C90.6554 160.399 90.6555 160.399 90.6555 160.399L90.6556 160.398L90.6558 160.396L90.6565 160.39L90.6585 160.375C90.6602 160.361 90.6626 160.343 90.6659 160.32C90.6693 160.295 90.6737 160.264 90.6792 160.226C90.6842 160.191 90.6903 160.151 90.6974 160.104C90.7272 159.91 90.7766 159.605 90.8561 159.154C91.0149 158.254 91.2951 156.764 91.782 154.396C91.9986 153.343 92.2561 152.115 92.5623 150.688C94.2224 139.085 94.5062 121.559 85.9249 103.805C83.1389 98.0504 79.6362 92.6735 75.5018 87.8021C74.1 91.3662 71.3503 99.2319 70.2202 109.078C68.8779 120.772 69.8285 135.181 77.9522 148.498C81.866 154.838 86.9809 160.349 93.0069 164.723L104.239 156.46C104.266 156.441 104.294 156.422 104.322 156.405C104.324 156.404 104.327 156.403 104.329 156.401Z" fill="black"/>
<path d="M42.1702 134.126C35.574 116.859 35.4197 92.9023 35.4197 92.9023C40.7238 97.5109 45.6801 102.505 50.2482 107.844C57.3383 116.076 63.4611 123.28 67.4024 134.074C70.293 142.138 71.5148 150.705 70.9938 159.255C70.613 154.552 69.903 138.561 80.7594 124.34C84.8622 119.009 90.0317 114.593 95.9378 111.374C97.9956 120.738 98.1533 130.42 96.4017 139.847C94.65 149.273 91.0245 158.253 85.74 166.253C81.7296 166.301 77.7206 166.074 73.7413 165.573C70.5307 165.162 67.567 164.606 64.9018 163.989C51.2052 153.266 45.3294 142.399 42.1702 134.126Z" fill="#63D782"/>
<path fill-rule="evenodd" clip-rule="evenodd" d="M34.9896 91.9671C35.3569 91.7982 35.7891 91.8601 36.0944 92.1253C41.4363 96.7668 46.428 101.797 51.0288 107.174C58.1138 115.4 64.356 122.731 68.3688 133.721L68.3708 133.727C69.5004 136.878 70.3792 140.105 71.003 143.377C72.3022 137.288 74.901 130.317 79.9412 123.715L79.9437 123.712C84.1337 118.268 89.4133 113.758 95.445 110.47C95.7293 110.315 96.0698 110.303 96.3644 110.437C96.6589 110.571 96.8731 110.836 96.9426 111.153C99.03 120.652 99.19 130.473 97.4131 140.035C95.6363 149.597 91.9588 158.705 86.5983 166.82C86.4103 167.104 86.0933 167.277 85.7521 167.281C81.6947 167.33 77.6386 167.101 73.6126 166.594L73.6102 166.594C70.3631 166.178 67.3655 165.616 64.6693 164.991C64.5229 164.957 64.3856 164.891 64.2672 164.799C50.3983 153.941 44.4221 142.909 41.2086 134.493C37.8633 125.735 36.1643 115.326 35.2978 107.147C34.8637 103.049 34.637 99.4946 34.5187 96.9631C34.4595 95.6971 34.4275 94.6863 34.4102 93.9907C34.4016 93.6429 34.3966 93.3739 34.3938 93.1911C34.3925 93.0996 34.3916 93.0298 34.3911 92.9824L34.3906 92.9284L34.3904 92.9093C34.3904 92.909 34.3904 92.9087 35.4194 92.9021L34.3904 92.9087C34.3878 92.5044 34.6222 92.136 34.9896 91.9671ZM36.5072 95.2363C36.5243 95.7158 36.5462 96.2616 36.5745 96.867C36.6913 99.3669 36.9154 102.88 37.3444 106.93C38.2042 115.046 39.8804 125.248 43.1313 133.758C46.2223 141.854 51.9604 152.496 65.3563 163.037C67.9323 163.627 70.786 164.157 73.8705 164.552C77.6219 165.024 81.3999 165.25 85.1804 165.228C90.2268 157.459 93.6964 148.771 95.3897 139.659C97.0312 130.825 96.9715 121.764 95.2186 112.961C89.9421 116.041 85.308 120.117 81.5758 124.966C74.595 134.111 72.5004 144.015 71.9911 151.043C72.1783 153.792 72.189 156.556 72.0206 159.317C71.9878 159.857 71.5438 160.279 71.0038 160.284C70.4637 160.289 70.0114 159.876 69.9678 159.338C69.837 157.722 69.6664 154.785 69.928 151.041C69.5295 145.381 68.3574 139.789 66.4344 134.424C62.5649 123.828 56.5623 116.752 49.4682 108.515L49.4661 108.513C45.4407 103.808 41.1117 99.3733 36.5072 95.2363Z" fill="black"/>
<path d="M189.406 149.108C182.202 154.83 174.618 157.217 169.998 158.658C164.901 160.267 159.641 161.303 154.315 161.745C146.546 157.122 140.701 149.857 137.851 141.277C135.594 134.16 135.54 126.528 137.696 119.379C139.394 119.832 151.321 123.197 156.096 134.136C158.645 140.374 158.975 147.297 157.032 153.75C156.579 155.231 155.818 157.156 156.003 157.238C156.435 157.423 160.716 147.534 163.71 142.831C168.65 135.144 179.496 126.984 205.407 124.833C203.607 130.668 199.398 141.154 189.406 149.108Z" fill="black"/>
<path fill-rule="evenodd" clip-rule="evenodd" d="M136.711 119.082C136.871 118.55 137.425 118.242 137.961 118.385C139.666 118.84 152.053 122.303 157.038 133.724C157.042 133.732 157.045 133.739 157.048 133.747C159.062 138.676 159.738 144.019 159.05 149.243C160.296 146.755 161.661 144.133 162.842 142.279L162.844 142.275C168.017 134.225 179.222 125.974 205.322 123.808C205.663 123.78 205.995 123.922 206.209 124.189C206.423 124.455 206.491 124.81 206.39 125.137C204.563 131.059 200.272 141.773 190.046 149.914L190.045 149.914C182.681 155.764 174.936 158.196 170.305 159.64C165.136 161.272 159.802 162.322 154.4 162.771C154.187 162.788 153.973 162.739 153.789 162.629C145.807 157.88 139.803 150.416 136.874 141.602L136.869 141.589C134.55 134.274 134.494 126.429 136.711 119.082ZM156.047 153.451C157.92 147.229 157.603 140.552 155.147 134.536C151.115 125.314 141.713 121.688 138.401 120.655C136.595 127.317 136.739 134.366 138.829 140.96C141.568 149.197 147.145 156.189 154.559 160.691C159.697 160.24 164.77 159.229 169.688 157.677L169.691 157.676C174.302 156.238 181.723 153.896 188.765 148.303C197.741 141.158 201.952 131.906 203.95 125.996C179.35 128.32 169.189 136.21 164.577 143.386C163.116 145.68 161.324 149.271 159.818 152.323C159.723 152.516 159.629 152.707 159.536 152.896C158.902 154.181 158.33 155.341 157.88 156.203C157.624 156.693 157.394 157.113 157.207 157.412C157.117 157.554 157.012 157.711 156.9 157.838C156.849 157.897 156.75 158.002 156.611 158.092C156.511 158.156 156.099 158.399 155.597 158.184L155.585 158.178C155.138 157.98 155.011 157.58 154.977 157.438C154.939 157.275 154.944 157.133 154.948 157.061C154.958 156.904 154.992 156.745 155.022 156.623C155.085 156.363 155.189 156.034 155.301 155.695C155.383 155.448 155.471 155.19 155.56 154.928C155.728 154.434 155.902 153.926 156.047 153.451Z" fill="black"/>
<path fill-rule="evenodd" clip-rule="evenodd" d="M44.9715 109.754C45.525 109.625 46.0783 109.969 46.2074 110.522C50.5423 129.105 58.7408 146.567 70.2696 161.772C70.613 162.224 70.5242 162.87 70.0713 163.213C69.6185 163.557 68.973 163.468 68.6296 163.015C56.9263 147.58 48.6036 129.854 44.2032 110.99C44.0741 110.436 44.4181 109.883 44.9715 109.754Z" fill="black"/>
<path d="M90.2678 126.377C90.2678 126.377 81.2122 158.535 76.6536 164.884L90.2678 126.377Z" fill="#EBEFDE"/>
<path fill-rule="evenodd" clip-rule="evenodd" d="M90.5466 125.386C91.0936 125.54 91.4122 126.109 91.2582 126.656L90.2677 126.377L89.2771 126.098C89.4312 125.551 89.9995 125.232 90.5466 125.386ZM90.2677 126.377C89.2771 126.098 89.2772 126.098 89.2771 126.098L89.2514 126.189C89.2342 126.25 89.2087 126.34 89.1751 126.458C89.1079 126.694 89.0087 127.042 88.8807 127.487C88.6248 128.376 88.2539 129.655 87.7946 131.209C86.8759 134.318 85.6039 138.528 84.1902 142.935C82.7758 147.344 81.2229 151.939 79.7423 155.822C78.2458 159.747 76.8671 162.822 75.8175 164.284C75.486 164.745 75.5916 165.388 76.0532 165.72C76.5149 166.051 77.1578 165.946 77.4893 165.484C78.719 163.771 80.1818 160.446 81.6653 156.555C83.1648 152.623 84.7305 147.988 86.1499 143.564C87.5699 139.137 88.8467 134.911 89.7683 131.792C90.2292 130.233 90.6015 128.949 90.8586 128.056C90.9871 127.609 91.0869 127.259 91.1546 127.021C91.1885 126.902 91.2143 126.811 91.2317 126.75L91.2582 126.656C91.2583 126.656 91.2582 126.656 90.2677 126.377Z" fill="black"/>
<path fill-rule="evenodd" clip-rule="evenodd" d="M85.881 0.302577C86.7198 0.454543 87.2766 1.25775 87.1247 2.09658L54.2673 183.466C54.1153 184.305 53.3121 184.861 52.4733 184.709C51.6344 184.557 51.0776 183.754 51.2296 182.915L84.087 1.54626C84.2389 0.707429 85.0421 0.150612 85.881 0.302577Z" fill="black"/>
<path fill-rule="evenodd" clip-rule="evenodd" d="M135.445 0.207963C136.28 0.0330361 137.098 0.567603 137.273 1.40195L175.924 185.755C176.098 186.59 175.564 187.408 174.73 187.583C173.895 187.758 173.077 187.223 172.902 186.389L134.251 2.03542C134.076 1.20107 134.611 0.38289 135.445 0.207963Z" fill="black"/>
<path fill-rule="evenodd" clip-rule="evenodd" d="M107.614 3.25717e-06C108.467 -0.0017293 109.159 0.687943 109.161 1.54043L109.521 178.763C109.523 179.615 108.833 180.307 107.981 180.309C107.128 180.311 106.436 179.621 106.434 178.769L106.074 1.5467C106.072 0.694217 106.762 0.00173569 107.614 3.25717e-06Z" fill="black"/>
<path fill-rule="evenodd" clip-rule="evenodd" d="M150.814 151.084C151.291 150.776 151.928 150.912 152.237 151.39C156.651 158.218 160.415 165.444 163.481 172.975L162.527 173.363L163.481 172.975C179.409 212.06 172.053 248.913 169.595 260.49L169.595 260.49C166.097 276.929 160.992 285.378 156.269 293.195C155.247 294.888 154.242 296.552 153.275 298.26C147.904 307.75 143.52 318.899 143.52 345.199C143.52 345.767 143.06 346.228 142.491 346.228C141.923 346.228 141.462 345.767 141.462 345.199C141.462 318.599 145.913 307.091 151.484 297.246C152.475 295.494 153.496 293.803 154.528 292.094C159.231 284.307 164.16 276.143 167.582 260.062L168.588 260.276L167.582 260.062C170.022 248.567 177.258 212.235 161.574 173.751L161.574 173.751C158.557 166.339 154.853 159.227 150.508 152.507C150.2 152.03 150.337 151.393 150.814 151.084Z" fill="black"/>
<path d="M126.048 148.614C116.077 153.574 113.123 174.546 121.757 200.674C141.124 187.101 148.512 173.919 151.599 166.715C155.716 157.197 154.079 153.811 153.04 152.391C149.634 147.781 141.227 149.108 140.146 149.304C132.356 146.258 128.044 147.606 126.048 148.614Z" fill="white"/>
<path fill-rule="evenodd" clip-rule="evenodd" d="M140.253 148.242C141.145 148.1 143.352 147.817 145.805 148.02C148.554 148.247 151.893 149.107 153.867 151.78L153.87 151.783C154.501 152.645 155.255 154.051 155.282 156.505C155.308 158.914 154.634 162.289 152.544 167.122C149.389 174.483 141.885 187.824 122.347 201.517C122.081 201.703 121.742 201.753 121.433 201.651C121.124 201.548 120.882 201.306 120.78 200.997C116.43 187.833 114.978 175.911 115.901 166.605C116.818 157.367 120.116 150.418 125.587 147.695C127.835 146.559 132.376 145.231 140.253 148.242ZM139.771 150.262C132.237 147.316 128.231 148.664 126.512 149.533L126.506 149.536L126.506 149.536C122.007 151.774 118.844 157.79 117.949 166.808C117.092 175.454 118.358 186.595 122.304 199.024C140.65 185.86 147.694 173.215 150.653 166.31L150.655 166.307C152.68 161.623 153.246 158.546 153.224 156.528C153.202 154.556 152.619 153.56 152.211 153.001C150.779 151.064 148.211 150.284 145.636 150.071C143.102 149.862 140.83 150.226 140.329 150.317C140.142 150.351 139.948 150.332 139.771 150.262Z" fill="black"/>
<path d="M163.032 154.11C165.132 152.334 167.589 151.029 170.235 150.281C182.954 146.783 199.399 157.66 212.015 176.79C187.801 178.467 168.455 172.55 164.02 160.788C163.224 158.656 162.888 156.38 163.032 154.11Z" fill="#63D782"/>
<path fill-rule="evenodd" clip-rule="evenodd" d="M170.511 151.273C168.149 151.94 165.947 153.077 164.037 154.614C163.969 156.593 164.29 158.568 164.983 160.426C167.042 165.884 172.634 170.153 180.919 172.85C188.765 175.404 198.862 176.486 210.158 175.873C204.149 167.107 197.36 160.251 190.607 155.916C183.468 151.331 176.484 149.631 170.511 151.273ZM163.032 154.109L162.005 154.044C161.851 156.46 162.209 158.88 163.056 161.148L163.056 161.148L163.057 161.151C165.434 167.455 171.732 172.024 180.282 174.807C188.859 177.599 199.889 178.661 212.085 177.816C212.45 177.791 212.775 177.574 212.937 177.246C213.099 176.918 213.075 176.528 212.873 176.223C206.507 166.57 199.147 158.953 191.719 154.184C184.304 149.422 176.708 147.434 169.962 149.289L169.962 149.289L169.956 149.291C167.167 150.078 164.58 151.453 162.367 153.324L163.032 154.109Z" fill="black"/>
<path d="M154.995 204.451C152.897 202.674 150.44 201.371 147.791 200.633C135.072 197.124 118.628 208.001 106.002 227.131C130.226 228.819 149.572 222.891 154.007 211.14C154.802 209.004 155.138 206.725 154.995 204.451Z" fill="black"/>
<path fill-rule="evenodd" clip-rule="evenodd" d="M126.306 204.526C133.722 199.766 141.319 197.78 148.065 199.641L148.068 199.641C150.859 200.42 153.449 201.792 155.66 203.665L154.995 204.45L156.022 204.385C156.174 206.804 155.816 209.227 154.971 211.498L154.969 211.503C152.592 217.801 146.294 222.37 137.743 225.153C129.164 227.945 118.132 229.007 105.93 228.157C105.565 228.132 105.241 227.914 105.079 227.586C104.917 227.258 104.941 226.869 105.143 226.564C111.514 216.911 118.877 209.294 126.306 204.526ZM153.989 204.954C152.081 203.417 149.879 202.283 147.516 201.624C141.543 199.977 134.559 201.675 127.418 206.258C120.664 210.593 113.872 217.449 107.858 226.215C119.159 226.832 129.259 225.75 137.106 223.196C145.392 220.5 150.984 216.23 153.043 210.778C153.736 208.916 154.057 206.937 153.989 204.954Z" fill="black"/>
<path d="M72.5888 197.936C70.491 196.159 68.0337 194.857 65.3855 194.119C52.6665 190.61 36.2223 201.497 23.5959 220.627C47.8197 222.304 67.1657 216.377 71.6009 204.625C72.3959 202.49 72.7324 200.211 72.5888 197.936Z" fill="#63D782"/>
<path fill-rule="evenodd" clip-rule="evenodd" d="M43.8997 198.018C51.316 193.255 58.913 191.266 65.6589 193.127L65.6616 193.128C68.4528 193.906 71.0426 195.279 73.2536 197.152L72.5885 197.937L73.6155 197.872C73.7683 200.29 73.4104 202.714 72.565 204.985L72.5634 204.989C70.1862 211.288 63.8883 215.857 55.3375 218.641C46.7585 221.434 35.7265 222.499 23.5246 221.654C23.1596 221.628 22.8354 221.411 22.6732 221.083C22.5111 220.755 22.5353 220.366 22.7369 220.06C29.1079 210.408 36.4712 202.788 43.8997 198.018ZM71.5829 198.441C69.6752 196.903 67.473 195.77 65.11 195.111C59.1372 193.463 52.1532 195.163 45.0118 199.749C38.2581 204.086 31.4669 210.945 25.4526 219.711C36.753 220.323 46.8526 219.239 54.7003 216.684C62.986 213.986 68.5784 209.716 70.637 204.264C71.3299 202.402 71.6507 200.424 71.5829 198.441Z" fill="black"/>
<path d="M144.439 319.729C146.012 319.481 147.62 319.574 149.154 320.001C156.551 322.103 161.415 332.506 161.885 345.847C149.34 339.34 141.515 330.529 142.888 323.339C143.141 322.038 143.67 320.807 144.439 319.729Z" fill="black"/>
<path d="M56.1242 409.251C57.6808 408.916 59.291 408.916 60.8476 409.251C68.3596 410.877 73.9061 420.931 75.2542 434.206C62.3088 428.535 53.9324 420.252 54.8174 412.987C54.9825 411.663 55.4281 410.389 56.1242 409.251Z" fill="white"/>
<path fill-rule="evenodd" clip-rule="evenodd" d="M56.7809 410.172C56.2876 411.084 55.9676 412.081 55.8388 413.112C55.4516 416.296 57.0818 419.887 60.5857 423.475C63.7653 426.731 68.3805 429.865 74.0198 432.515C73.2473 426.735 71.6517 421.7 69.4684 417.869C67.0552 413.635 63.9949 410.985 60.6304 410.257C59.3629 409.984 58.0564 409.956 56.7809 410.172ZM55.9077 408.245C57.6071 407.879 59.3649 407.879 61.0643 408.245L61.0654 408.245C65.2127 409.143 68.6816 412.333 71.2565 416.85C73.8385 421.38 75.5934 427.359 76.2781 434.101C76.315 434.465 76.1559 434.822 75.8602 435.037C75.5645 435.252 75.1766 435.295 74.8414 435.148C68.2859 432.277 62.8327 428.721 59.1133 424.913C55.4144 421.126 53.2989 416.943 53.796 412.862L53.7963 412.859L53.7963 412.859C53.9796 411.39 54.474 409.977 55.2465 408.714C55.3935 408.474 55.6324 408.304 55.9077 408.245Z" fill="black"/>
<path d="M172.828 182.285C171.899 189.012 172.468 195.86 174.495 202.341C181.163 223.282 201.158 231.751 204.584 233.151C204.811 232.06 209.956 205.665 192.164 190.641C186.639 186.082 179.934 183.185 172.828 182.285Z" fill="white"/>
<path fill-rule="evenodd" clip-rule="evenodd" d="M172.957 181.264C180.256 182.188 187.144 185.164 192.819 189.847L192.828 189.855C202.003 197.602 205.23 208.256 206.154 217.013C207.079 225.772 205.716 232.759 205.592 233.36C205.53 233.659 205.338 233.915 205.068 234.059C204.798 234.203 204.478 234.219 204.195 234.103C200.748 232.696 180.336 224.076 173.514 202.653L173.513 202.648C171.441 196.023 170.859 189.021 171.809 182.144L172.828 182.285L172.957 181.264ZM173.718 183.449C173 189.694 173.598 196.025 175.476 202.031C181.446 220.775 198.378 229.328 203.793 231.699C204.164 229.307 204.799 223.78 204.108 217.229C203.213 208.761 200.118 198.707 191.504 191.431C186.395 187.217 180.25 184.462 173.718 183.449Z" fill="black"/>
<path d="M174.618 234.735C175.417 240.555 174.922 246.479 173.167 252.085C167.405 270.186 150.117 277.523 147.153 278.727C146.947 277.78 142.502 254.966 157.886 241.97C162.669 238.027 168.47 235.519 174.618 234.735Z" fill="#63D782"/>
<path fill-rule="evenodd" clip-rule="evenodd" d="M158.545 242.759C151.135 249.022 148.467 257.674 147.696 264.975C147.116 270.473 147.621 275.132 147.944 277.274C152.78 275.135 167.103 267.736 172.186 251.775C173.791 246.644 174.314 241.24 173.726 235.903C168.152 236.798 162.911 239.162 158.545 242.759ZM174.618 234.735L174.488 233.714C168.147 234.522 162.164 237.109 157.231 241.175L157.222 241.183C149.25 247.917 146.451 257.168 145.65 264.759C144.848 272.35 146.03 278.407 146.147 278.945C146.212 279.242 146.404 279.495 146.673 279.637C146.941 279.779 147.259 279.794 147.54 279.68C150.527 278.467 168.232 270.979 174.147 252.397L174.149 252.392C175.949 246.642 176.457 240.565 175.637 234.595L174.618 234.735Z" fill="black"/>
<path d="M68.0821 248.278C66.7055 252.648 66.3085 257.268 66.9193 261.81C68.9774 276.494 81.3259 284.449 83.4457 285.725C83.7236 285.025 90.1345 268.046 80.0087 256.027C76.847 252.366 72.7111 249.679 68.0821 248.278Z" fill="white"/>
<path fill-rule="evenodd" clip-rule="evenodd" d="M68.38 247.292C73.1956 248.751 77.4981 251.546 80.7872 255.353L80.7955 255.363C86.0936 261.652 87.0363 269.206 86.6553 275.185C86.2743 281.166 84.5636 285.697 84.4019 286.104C84.2903 286.385 84.0609 286.603 83.7745 286.699C83.4881 286.796 83.1737 286.762 82.9148 286.606C80.7578 285.308 68.0279 277.135 65.8999 261.952L65.8991 261.946L65.8992 261.946C65.2683 257.255 65.6784 252.483 67.1003 247.968L68.0818 248.277L68.38 247.292ZM68.7682 249.583C67.6783 253.511 67.3946 257.622 67.9385 261.669C69.6998 274.227 79.2813 281.731 82.9002 284.156C83.4406 282.457 84.3433 279.105 84.6014 275.055C84.9638 269.366 84.0496 262.423 79.2256 256.694C76.4179 253.445 72.8102 250.996 68.7682 249.583Z" fill="black"/>
<path d="M30.141 246.662C27.1492 250.485 25.4205 255.144 25.1944 259.993C24.9682 264.842 26.2559 269.642 28.8789 273.727C31.5019 277.812 35.3305 280.98 39.8341 282.792C44.3377 284.604 49.2935 284.971 54.0148 283.841C47.2303 278.12 41.513 271.243 37.1282 263.528C34.1139 258.215 31.767 252.55 30.141 246.662Z" fill="black"/>
<path fill-rule="evenodd" clip-rule="evenodd" d="M24.1662 259.945C24.4022 254.883 26.207 250.019 29.3303 246.028L30.1407 246.662L31.1326 246.388C32.7362 252.195 35.0504 257.781 38.023 263.02C42.3477 270.63 47.9865 277.413 54.6779 283.055C54.9747 283.305 55.1054 283.701 55.0158 284.079C54.9262 284.457 54.6316 284.752 54.254 284.842C49.3251 286.022 44.1514 285.639 39.4497 283.747C34.748 281.855 30.7511 278.548 28.0128 274.283C25.2744 270.019 23.9301 265.008 24.1662 259.945ZM29.7478 248.991C27.628 252.29 26.4058 256.1 26.222 260.041C26.0058 264.677 27.2369 269.266 29.7446 273.171C32.2522 277.076 35.9124 280.105 40.218 281.838C43.8801 283.311 47.8549 283.785 51.7385 283.229C45.5647 277.72 40.3263 271.239 36.2333 264.037L36.2329 264.036C33.529 259.27 31.3548 254.225 29.7478 248.991Z" fill="black"/>
<path fill-rule="evenodd" clip-rule="evenodd" d="M62.9464 153.33C63.3086 152.892 63.9573 152.831 64.3952 153.193C69.8448 157.701 74.272 163.317 77.3825 169.669L77.3863 169.677C84.4914 184.501 80.9422 197.783 74.8912 213.048C73.785 215.839 72.5943 218.699 71.3646 221.652C65.8502 234.896 59.552 250.023 56.5753 269.242L56.5753 269.243C53.3505 290.01 56.0308 302.564 58.9584 316.275C59.0394 316.654 59.1206 317.034 59.2018 317.415C62.2361 331.655 65.3454 347.326 62.2406 374.473L62.2404 374.474C59.9252 394.496 55.0627 414.141 47.7709 432.931C47.5653 433.461 46.9691 433.724 46.4393 433.518C45.9094 433.313 45.6466 432.716 45.8522 432.187C53.0806 413.56 57.9009 394.086 60.1959 374.238C63.2651 347.402 60.2002 331.976 57.1889 317.844C57.1067 317.459 57.0246 317.074 56.9426 316.69C54.0036 302.926 51.2584 290.071 54.5415 268.927C57.5599 249.439 63.9708 234.047 69.4908 220.794C70.7123 217.862 71.8901 215.034 72.978 212.289C78.9972 197.104 82.2344 184.557 75.5323 170.57C72.5504 164.483 68.3067 159.1 63.0834 154.779C62.6455 154.417 62.5842 153.768 62.9464 153.33Z" fill="black"/>
<path d="M75.9331 362.707C84.1655 367.132 84.5565 386.643 76.4374 411.762C64.3049 395.235 58.5217 383.587 55.7124 377.114C54.1277 373.471 52.3371 368.789 54.5599 365.794C57.2457 362.141 63.9139 363.181 64.768 363.325C70.7673 360.886 74.1014 361.771 75.9331 362.707Z" fill="#EBEFDE"/>
<path fill-rule="evenodd" clip-rule="evenodd" d="M75.4554 363.619C73.9196 362.837 70.9017 361.943 65.1557 364.278C64.9788 364.35 64.7853 364.372 64.597 364.34C64.1999 364.273 62.4192 363.993 60.4379 364.161C58.4135 364.333 56.461 364.946 55.3891 366.404L55.3864 366.408L55.3864 366.408C54.5227 367.572 54.3748 369.145 54.7206 371.025C55.065 372.898 55.8643 374.884 56.6562 376.704L56.6566 376.705C59.3426 382.893 64.7986 393.918 76.0704 409.511C79.6887 397.812 81.3926 387.474 81.2883 379.488C81.2333 375.275 80.6755 371.765 79.6635 369.069C78.6537 366.378 77.2217 364.572 75.4554 363.619ZM64.6487 362.264C70.7263 359.86 74.302 360.718 76.4017 361.791C76.408 361.795 76.4143 361.798 76.4205 361.801C78.7662 363.062 80.4669 365.352 81.5903 368.345C82.7133 371.337 83.2893 375.103 83.3462 379.461C83.4601 388.18 81.4977 399.453 77.4167 412.079C77.2979 412.446 76.9832 412.716 76.6018 412.778C76.2204 412.84 75.8367 412.683 75.608 412.371C63.4292 395.782 57.608 384.066 54.7688 377.524C53.976 375.702 53.0878 373.525 52.6965 371.398C52.3066 369.278 52.3746 367.014 53.7324 365.183C55.3464 362.99 58.0701 362.297 60.2641 362.111C62.1777 361.948 63.9031 362.153 64.6487 362.264Z" fill="black"/>
<path d="M77.1273 156.322C77.1273 145.784 56.4126 135.422 25.5824 129.268C27.6405 139.888 33.5163 161.704 50.0737 172.406C53.984 174.937 60.6522 179.239 66.0547 176.522C71.0559 174.001 71.9923 166.973 72.229 165.336C76.1805 161.642 77.1273 158.586 77.1273 156.322Z" fill="white"/>
<path fill-rule="evenodd" clip-rule="evenodd" d="M24.8564 128.539C25.0996 128.297 25.4472 128.192 25.7835 128.259C41.2501 131.347 54.2391 135.5 63.389 140.238C67.9618 142.605 71.6231 145.143 74.1543 147.806C76.6849 150.468 78.1559 153.332 78.1559 156.322C78.1559 158.873 77.0916 162.1 73.1958 165.838C73.0464 166.848 72.7108 168.861 71.8868 170.972C70.9561 173.356 69.3439 176.016 66.5176 177.441L66.5167 177.442C63.4449 178.986 60.0939 178.492 57.1458 177.397C54.1948 176.3 51.4612 174.53 49.5181 173.273L49.5147 173.27M26.8968 130.585C41.5857 133.616 53.8225 137.602 62.4426 142.065C66.9022 144.374 70.3465 146.788 72.6627 149.224C74.9796 151.661 76.0979 154.044 76.0979 156.322C76.0979 158.242 75.3167 161.041 71.5259 164.585C71.355 164.745 71.2437 164.958 71.2102 165.189C71.2067 165.213 71.2031 165.239 71.1993 165.265C71.075 166.128 70.7864 168.131 69.9696 170.223C69.1228 172.393 67.7664 174.506 65.5921 175.603C63.2614 176.775 60.5771 176.476 57.8628 175.468C55.1535 174.461 52.5996 172.816 50.6325 171.542L50.6319 171.542C42.5728 166.333 37.0714 158.389 33.3227 150.371C29.919 143.09 27.9871 135.806 26.8968 130.585Z" fill="black"/>
<path d="M96.8636 161.725C106.413 166.87 106.845 189.406 97.4502 218.466C83.4346 199.347 76.7252 185.877 73.4734 178.395C71.652 174.166 69.5733 168.753 72.1459 165.265C75.2331 161.025 82.9612 162.229 83.9594 162.394C90.8849 159.615 94.7438 160.583 96.8636 161.725Z" fill="white"/>
<path fill-rule="evenodd" clip-rule="evenodd" d="M96.3759 162.63C94.5741 161.66 91.0415 160.661 84.343 163.348C84.1684 163.418 83.9779 163.439 83.7923 163.409C83.3194 163.331 81.2381 163.005 78.9239 163.203C76.5661 163.404 74.251 164.122 72.9783 165.87L72.9746 165.875L72.9746 165.875C71.9336 167.287 71.7708 169.168 72.1745 171.366C72.5769 173.557 73.5073 175.871 74.4182 177.986C77.547 185.184 83.9282 198.03 97.085 216.216C101.341 202.546 103.352 190.465 103.233 181.14C103.17 176.258 102.523 172.179 101.342 169.036C100.162 165.896 98.4771 163.763 96.3759 162.63L96.3759 162.63ZM97.3522 160.819C94.9446 159.521 90.8328 158.592 83.8419 161.333C83.0125 161.209 80.9907 160.961 78.749 161.152C76.2223 161.368 73.1311 162.166 71.3164 164.656C69.7865 166.733 69.7026 169.301 70.1503 171.738C70.5993 174.182 71.6186 176.689 72.5287 178.802L72.5301 178.805C75.8119 186.355 82.5592 199.892 96.6207 219.074C96.8491 219.386 97.233 219.544 97.6145 219.482C97.996 219.42 98.3109 219.15 98.4297 218.783C103.149 204.187 105.42 191.172 105.291 181.114C105.226 176.086 104.561 171.751 103.269 168.312C101.976 164.873 100.026 162.259 97.3522 160.819Z" fill="black"/>
<path fill-rule="evenodd" clip-rule="evenodd" d="M55.6743 302.718C56.172 302.992 56.3532 303.618 56.0789 304.116L55.1776 303.619C56.0789 304.116 56.0787 304.116 56.0784 304.117L56.0779 304.118L56.0767 304.12L56.0742 304.124L56.068 304.135C56.0633 304.144 56.0574 304.154 56.0498 304.167C56.0348 304.192 56.0131 304.229 55.9819 304.28C55.9196 304.383 55.8178 304.547 55.6543 304.804C55.3273 305.317 54.7489 306.208 53.7371 307.729C51.7133 310.771 47.9487 316.343 40.9808 326.471C33.7921 336.92 23.6923 340.344 15.4575 341.159C11.344 341.566 7.68142 341.325 5.04735 340.983C3.72906 340.812 2.66488 340.615 1.9264 340.459C1.55707 340.382 1.26891 340.314 1.07086 340.266C0.971826 340.242 0.895294 340.222 0.84238 340.208C0.815922 340.202 0.795366 340.196 0.78085 340.192L0.763624 340.188L0.756712 340.186C0.756088 340.186 0.755561 340.185 1.0293 339.193L0.755561 340.185C0.207713 340.034 -0.113846 339.468 0.0373384 338.92C0.188517 338.372 0.755157 338.05 1.30299 338.201C1.30301 338.201 1.30296 338.201 1.30299 338.201L1.31435 338.204C1.32414 338.207 1.3399 338.211 1.36149 338.217C1.40468 338.228 1.47118 338.245 1.55991 338.267C1.73737 338.31 2.00359 338.373 2.34972 338.445C3.04218 338.591 4.05329 338.778 5.31243 338.942C7.83324 339.269 11.3341 339.499 15.2549 339.111C23.0886 338.336 32.5406 335.108 39.2852 325.305C46.2506 315.181 50.0083 309.619 52.0235 306.589C53.0312 305.075 53.6014 304.196 53.9183 303.698C54.0767 303.449 54.1706 303.298 54.2235 303.211C54.2499 303.167 54.2656 303.141 54.2737 303.127L54.2781 303.119C54.2783 303.119 54.2783 303.119 54.2785 303.119C54.279 303.118 54.2794 303.117 54.2799 303.116C54.556 302.623 55.1786 302.445 55.6743 302.718Z" fill="black"/>
<path fill-rule="evenodd" clip-rule="evenodd" d="M11.5061 330.865C11.5061 330.865 11.506 330.865 11.5061 330.865L11.5094 330.868L11.5248 330.88C11.5389 330.891 11.5609 330.908 11.5905 330.931C11.6495 330.977 11.7386 331.045 11.8553 331.132C12.0887 331.306 12.432 331.556 12.8657 331.856C13.7342 332.456 14.9589 333.25 16.3834 334.024C19.2809 335.6 22.8127 336.988 25.8221 336.728C26.3884 336.679 26.8871 337.098 26.9361 337.664C26.9851 338.23 26.5658 338.729 25.9996 338.778C22.3511 339.094 18.3606 337.442 15.4003 335.832C13.8959 335.014 12.6078 334.179 11.6957 333.549C11.2391 333.234 10.8752 332.968 10.624 332.781C10.4983 332.687 10.4007 332.613 10.3336 332.561C10.3001 332.535 10.2742 332.515 10.2562 332.501L10.2353 332.484L10.2293 332.48L10.2269 332.478C10.2266 332.477 10.2264 332.477 10.8662 331.671L10.2264 332.477C9.78131 332.124 9.70693 331.477 10.0603 331.031C10.4136 330.586 11.061 330.512 11.5061 330.865Z" fill="black"/>
<path fill-rule="evenodd" clip-rule="evenodd" d="M61.9154 352.832C62.4533 352.649 63.0381 352.936 63.2215 353.474L62.2476 353.806L61.2736 354.139C61.0902 353.601 61.3775 353.016 61.9154 352.832ZM62.2476 353.806C61.2736 354.139 61.2736 354.138 61.2736 354.139L61.3048 354.23C61.3256 354.292 61.3566 354.383 61.397 354.503C61.478 354.743 61.597 355.098 61.7491 355.554C62.0532 356.468 62.4893 357.791 63.0169 359.425C64.072 362.694 65.4921 367.208 66.952 372.189C69.8815 382.184 72.9378 393.949 73.5708 401.333C73.6194 401.9 74.1178 402.319 74.684 402.271C75.2503 402.222 75.67 401.724 75.6214 401.157C74.9682 393.538 71.8502 381.584 68.927 371.61C67.4605 366.607 66.0346 362.074 64.9755 358.793C64.4458 357.152 64.0077 355.823 63.7018 354.904C63.5489 354.445 63.429 354.088 63.3472 353.846C63.3064 353.724 63.275 353.632 63.2539 353.569L63.2215 353.474C63.2214 353.474 63.2215 353.474 62.2476 353.806Z" fill="black"/>
<path fill-rule="evenodd" clip-rule="evenodd" d="M172.219 224.095C172.526 223.616 173.163 223.477 173.641 223.784L173.101 224.626C173.641 223.784 173.642 223.785 173.644 223.786L173.647 223.788L173.653 223.792L173.668 223.802C173.68 223.81 173.693 223.819 173.709 223.83C173.74 223.853 173.78 223.882 173.827 223.919C173.921 223.993 174.043 224.098 174.183 224.238C174.464 224.517 174.816 224.933 175.153 225.516C175.832 226.691 176.421 228.491 176.307 231.11C176.08 236.304 173.091 244.713 162.575 258.082C162.223 258.529 161.576 258.606 161.13 258.255C160.683 257.903 160.606 257.256 160.957 256.81C171.382 243.557 174.052 235.569 174.25 231.02C174.349 228.768 173.841 227.36 173.371 226.546C173.133 226.134 172.896 225.86 172.733 225.697C172.651 225.616 172.587 225.562 172.55 225.533C172.532 225.519 172.52 225.511 172.516 225.508C172.049 225.197 171.915 224.568 172.219 224.095Z" fill="black"/>
<path fill-rule="evenodd" clip-rule="evenodd" d="M161.692 172.763C162.024 172.301 162.667 172.196 163.128 172.528L162.528 173.364C163.128 172.528 163.129 172.528 163.129 172.529L163.134 172.532L163.146 172.541L163.191 172.574C163.23 172.602 163.287 172.644 163.361 172.699C163.508 172.809 163.724 172.973 164.001 173.187C164.555 173.617 165.352 174.252 166.337 175.085C168.306 176.749 171.025 179.2 174.038 182.358C180.06 188.67 187.287 197.834 192.033 209.21C192.252 209.735 192.004 210.337 191.48 210.556C190.955 210.775 190.353 210.527 190.134 210.003C185.516 198.935 178.465 189.979 172.549 183.779C169.595 180.682 166.931 178.281 165.008 176.656C164.047 175.844 163.272 175.227 162.74 174.814C162.474 174.607 162.268 174.452 162.13 174.349C162.061 174.297 162.009 174.259 161.975 174.234L161.937 174.207L161.929 174.2L161.927 174.199C161.466 173.867 161.36 173.224 161.692 172.763Z" fill="black"/>
<path fill-rule="evenodd" clip-rule="evenodd" d="M165.573 182.752C166.105 182.552 166.698 182.822 166.898 183.355C169.016 189.016 167.264 194.042 163.649 198.266C160.066 202.451 154.59 205.942 148.972 208.73C143.336 211.526 137.466 213.658 133.015 215.09C130.787 215.806 128.909 216.349 127.587 216.713C126.925 216.895 126.403 217.032 126.044 217.124C125.865 217.17 125.727 217.205 125.633 217.228C125.586 217.24 125.55 217.249 125.525 217.255L125.497 217.262L125.488 217.264C125.487 217.264 125.487 217.264 125.245 216.264L125.487 217.264C124.934 217.398 124.378 217.058 124.245 216.505C124.112 215.953 124.451 215.397 125.004 215.264L125.046 215.437C125.004 215.264 125.004 215.264 125.004 215.264L125.011 215.262L125.036 215.256C125.058 215.251 125.091 215.242 125.136 215.231C125.225 215.209 125.358 215.176 125.532 215.131C125.88 215.041 126.391 214.907 127.041 214.728C128.339 214.371 130.189 213.837 132.385 213.13C136.781 211.717 142.546 209.621 148.057 206.886C153.587 204.142 158.77 200.799 162.085 196.927C165.367 193.093 166.752 188.839 164.97 184.076C164.771 183.544 165.041 182.951 165.573 182.752Z" fill="black"/>
<path fill-rule="evenodd" clip-rule="evenodd" d="M136.167 157.642C133.211 164.053 131.026 171.257 130.184 174.135C130.025 174.681 129.454 174.994 128.908 174.834C128.363 174.675 128.05 174.103 128.209 173.558C129.055 170.664 131.275 163.337 134.298 156.78C135.806 153.507 137.541 150.368 139.441 148.061C141.301 145.801 143.533 144.083 146.052 144.232L146.053 144.233C148.308 144.369 151.077 146.014 153.938 152.02C154.182 152.534 153.965 153.148 153.451 153.392C152.938 153.636 152.324 153.419 152.08 152.906C149.344 147.161 147.07 146.356 145.929 146.287C144.455 146.2 142.803 147.215 141.03 149.369C139.295 151.475 137.647 154.43 136.167 157.642Z" fill="black"/>
<path fill-rule="evenodd" clip-rule="evenodd" d="M156.216 157.121C155.927 157.6 155.306 157.762 154.819 157.48C154.327 157.196 154.159 156.566 154.444 156.074L155.334 156.59C154.444 156.074 154.444 156.073 154.445 156.072L154.447 156.069L154.451 156.062L154.46 156.046C154.468 156.034 154.476 156.021 154.487 156.005C154.507 155.973 154.534 155.932 154.569 155.885C154.637 155.791 154.734 155.668 154.863 155.527C155.123 155.244 155.513 154.89 156.066 154.542C157.182 153.842 158.913 153.203 161.492 153.186C166.608 153.153 175.079 155.571 188.95 164.862C189.422 165.179 189.548 165.818 189.232 166.29C188.916 166.762 188.276 166.889 187.804 166.572C174.055 157.362 166.005 155.215 161.505 155.244C159.276 155.258 157.925 155.806 157.16 156.286C156.774 156.528 156.524 156.761 156.379 156.919C156.307 156.998 156.26 157.059 156.235 157.093C156.225 157.107 156.218 157.117 156.216 157.121Z" fill="black"/>
<path fill-rule="evenodd" clip-rule="evenodd" d="M159.558 285.664C160.035 285.972 160.171 286.609 159.863 287.087C156.474 292.322 151.823 296.62 146.337 299.586L146.327 299.591C144.322 300.647 142.797 301.191 141.442 301.675L141.427 301.681C140.077 302.163 138.928 302.575 137.558 303.376L137.557 303.377C133.869 305.527 129.107 310.194 126.371 321.772C126.24 322.325 125.686 322.668 125.133 322.537C124.58 322.406 124.237 321.852 124.368 321.299C127.21 309.271 132.264 304.08 136.52 301.599C138.067 300.695 139.375 300.228 140.721 299.747L140.736 299.742C142.077 299.263 143.49 298.758 145.363 297.773C150.543 294.971 154.935 290.912 158.135 285.968C158.444 285.491 159.081 285.355 159.558 285.664Z" fill="black"/>
<path fill-rule="evenodd" clip-rule="evenodd" d="M58.7745 396.487C59.0034 397.005 58.7706 397.61 58.2547 397.841L58.2477 397.845C58.2385 397.849 58.2209 397.858 58.1959 397.87C58.1459 397.896 58.0666 397.939 57.9653 398C57.7622 398.123 57.475 398.318 57.1607 398.596C56.5329 399.15 55.8096 400.02 55.4141 401.298C54.6361 403.814 55.0119 408.358 61.112 415.867C61.4703 416.309 61.4032 416.957 60.9621 417.315C60.5209 417.673 59.8729 417.606 59.5145 417.165C53.2352 409.435 52.371 404.172 53.4479 400.69C53.9798 398.97 54.9577 397.795 55.7991 397.052C56.2195 396.682 56.6089 396.416 56.8988 396.24C57.0441 396.152 57.1654 396.086 57.2543 396.04C57.2988 396.018 57.3353 396 57.3628 395.987C57.3766 395.98 57.3881 395.975 57.3972 395.97L57.4091 395.965L57.4137 395.963L57.4157 395.962C57.4166 395.962 57.4174 395.961 57.8333 396.903L57.4174 395.961C57.9373 395.732 58.5449 395.967 58.7745 396.487Z" fill="black"/>
<path fill-rule="evenodd" clip-rule="evenodd" d="M67.3822 232.081C67.3823 232.081 67.3823 232.081 67.3823 232.081C67.4621 231.519 67.0712 230.998 66.5089 230.918C65.9462 230.837 65.425 231.228 65.3447 231.791L66.3584 231.936C65.3447 231.791 65.3446 231.791 65.3446 231.792L65.3444 231.794L65.3438 231.798L65.3421 231.81C65.3407 231.82 65.3388 231.834 65.3365 231.852C65.3319 231.888 65.3256 231.939 65.3182 232.006C65.3032 232.138 65.2835 232.331 65.2631 232.581C65.2223 233.081 65.1787 233.81 65.165 234.746C65.1376 236.618 65.2296 239.321 65.702 242.675C66.6471 249.386 69.1142 258.704 75.1867 269.209C75.4712 269.701 76.1006 269.869 76.5926 269.585C77.0847 269.3 77.2529 268.671 76.9685 268.179C71.0423 257.927 68.6523 248.867 67.74 242.388C67.2837 239.148 67.1969 236.552 67.2229 234.776C67.2359 233.888 67.2771 233.205 67.3143 232.748C67.333 232.52 67.3506 232.349 67.3633 232.237C67.3696 232.181 67.3746 232.139 67.378 232.114L67.3816 232.086L67.3822 232.081C67.3822 232.081 67.3822 232.081 67.3822 232.081ZM67.3823 232.081C67.3823 232.081 67.3823 232.081 67.3823 232.081L67.3823 232.081Z" fill="black"/>
<path fill-rule="evenodd" clip-rule="evenodd" d="M80.5296 191.474C80.9901 191.807 81.0934 192.45 80.7603 192.911C79.2336 195.021 76.1304 197.151 72.5315 199.135C68.8857 201.145 64.5663 203.091 60.4423 204.788C56.3144 206.488 52.3626 207.947 49.444 208.98C47.9843 209.497 46.7818 209.908 45.9435 210.19C45.5244 210.331 45.1962 210.44 44.9724 210.514C44.8605 210.55 44.7747 210.578 44.7166 210.597L44.6505 210.619L44.6291 210.626L44.6279 210.626C44.6275 210.626 44.6273 210.626 44.3113 209.647C43.9952 208.668 43.9953 208.668 43.9954 208.668L43.9963 208.667L44.0157 208.661L44.079 208.641C44.1352 208.622 44.219 208.595 44.3289 208.559C44.5487 208.486 44.8726 208.379 45.2873 208.239C46.1166 207.96 47.3088 207.553 48.757 207.04C51.6545 206.014 55.5723 204.568 59.6588 202.885C63.7491 201.201 67.9888 199.289 71.538 197.333C75.134 195.35 77.8616 193.407 79.0928 191.705C79.4258 191.244 80.0692 191.141 80.5296 191.474ZM43.332 209.963C43.1574 209.422 43.4546 208.842 43.9954 208.668L44.3113 209.647L44.6273 210.626C44.0865 210.801 43.5065 210.504 43.332 209.963Z" fill="black"/>
<path fill-rule="evenodd" clip-rule="evenodd" d="M81.562 159.968C80.5637 159.869 79.1594 160.514 77.3289 162.695C76.9635 163.13 76.3145 163.187 75.8792 162.821C75.4439 162.456 75.3872 161.807 75.7526 161.372C77.6794 159.076 79.7072 157.7 81.7952 157.923C81.8051 157.924 81.815 157.925 81.8248 157.927C83.2785 158.124 84.4804 159.091 85.469 160.501C86.4592 161.913 87.3217 163.886 88.0825 166.362C89.6061 171.322 90.7936 178.547 91.6634 187.994C91.7155 188.56 91.299 189.061 90.733 189.113C90.1671 189.166 89.6661 188.749 89.614 188.183C88.7481 178.778 87.5757 171.721 86.1151 166.966C85.3837 164.585 84.598 162.843 83.784 161.683C82.9744 160.528 82.2212 160.063 81.562 159.968Z" fill="black"/>
<path d="M39.1037 305.77C29.688 307.962 24.0694 327.308 25.3968 354.568C41.9233 341.365 50.8451 331.311 55.3729 325.62C57.9352 322.41 60.9812 318.232 59.5817 314.62C57.8838 310.257 50.9583 309.475 50.0733 309.413C44.7532 305.348 41.1927 305.287 39.1037 305.77Z" fill="white"/>
<path fill-rule="evenodd" clip-rule="evenodd" d="M50.4596 308.415C51.2496 308.499 53.0189 308.76 54.8748 309.437C57.01 310.215 59.5262 311.64 60.5405 314.247L60.541 314.248C61.3895 316.438 60.8512 318.706 59.8912 320.714C58.9287 322.728 57.4592 324.656 56.1779 326.261C51.6024 332.012 42.626 342.12 26.0389 355.371C25.737 355.613 25.3254 355.664 24.9732 355.505C24.621 355.346 24.3876 355.003 24.3688 354.618C23.7017 340.919 24.7753 329.148 27.2313 320.488C28.459 316.159 30.0446 312.562 31.967 309.886C33.8903 307.208 36.1982 305.39 38.8702 304.768L38.8714 304.768C41.2767 304.211 45.0689 304.375 50.4596 308.415ZM39.3362 306.773C37.3004 307.247 35.3754 308.668 33.6386 311.086C31.9008 313.506 30.3994 316.86 29.2113 321.049C26.9553 329.004 25.875 339.806 26.338 352.489C41.7927 339.963 50.2332 330.427 54.5674 324.98L54.5684 324.979C55.8492 323.374 57.1833 321.607 58.0343 319.827C58.8878 318.041 59.1728 316.414 58.6222 314.992C57.9383 313.236 56.1431 312.089 54.1701 311.37C52.2348 310.665 50.3841 310.466 50.0015 310.44C49.8006 310.425 49.6083 310.353 49.4483 310.231C44.326 306.317 41.0736 306.37 39.3362 306.773Z" fill="black"/>
<path fill-rule="evenodd" clip-rule="evenodd" d="M49.288 308.696C49.6556 308.263 50.3049 308.209 50.7384 308.577C51.1719 308.944 51.2254 309.594 50.8579 310.027C50.8579 310.027 50.8579 310.027 50.8579 310.027L50.8489 310.038L50.8197 310.072C50.7935 310.104 50.7542 310.15 50.7024 310.213C50.5989 310.337 50.4458 310.522 50.249 310.763C49.8554 311.245 49.2873 311.95 48.5927 312.84C47.203 314.621 45.3093 317.138 43.2943 320.082C39.2474 325.993 34.7765 333.531 32.8587 340.248C32.7026 340.794 32.1331 341.111 31.5866 340.955C31.0402 340.799 30.7236 340.229 30.8796 339.683C32.8928 332.632 37.5237 324.867 41.596 318.919C43.6406 315.932 45.5608 313.38 46.9701 311.574C47.675 310.671 48.2527 309.953 48.655 309.461C48.8562 309.215 49.0135 309.025 49.121 308.895C49.1747 308.831 49.216 308.782 49.2441 308.748L49.2763 308.71L49.2877 308.697C49.2879 308.696 49.288 308.696 50.073 309.362L49.288 308.696Z" fill="black"/>
</svg>
