<svg width="22" height="22" viewBox="0 0 22 22" fill="none" xmlns="http://www.w3.org/2000/svg">
<path fill-rule="evenodd" clip-rule="evenodd" d="M13.5092 6.29176C13.5092 8.86093 11.0042 10.9443 11.0042 10.9443C11.0042 10.9443 8.5 8.86093 8.5 6.29176C8.5 3.72259 11.0042 1.63843 11.0042 1.63843C11.0042 1.63843 13.5092 3.72176 13.5092 6.29176Z" stroke="black" stroke-width="2.5" stroke-linecap="round" stroke-linejoin="round"/>
<path fill-rule="evenodd" clip-rule="evenodd" d="M17.8225 17.8334C15.2325 20.4276 11 20.3884 11 20.3884C11 20.3884 10.9609 16.1518 13.5509 13.5618C16.1409 10.9718 20.3775 11.0118 20.3775 11.0118C20.3775 11.0118 20.4117 15.2501 17.8225 17.8334Z" stroke="black" stroke-width="2.5" stroke-linecap="round" stroke-linejoin="round"/>
<path fill-rule="evenodd" clip-rule="evenodd" d="M4.17333 17.8334C6.76333 20.4276 11 20.3884 11 20.3884C11 20.3884 11.0392 16.1518 8.44916 13.5618C5.85916 10.9718 1.62333 11.0118 1.62333 11.0118C1.62333 11.0118 1.58333 15.2501 4.17333 17.8334Z" stroke="black" stroke-width="2.5" stroke-linecap="round" stroke-linejoin="round"/>
<path d="M11.0042 10.9443V20.3885" stroke="black" stroke-width="2.5" stroke-linecap="round" stroke-linejoin="round"/>
</svg>
