<svg width="17" height="17" viewBox="0 0 17 17" fill="none" xmlns="http://www.w3.org/2000/svg">
<path d="M5.33696 8.04105C5.33696 6.56703 6.53121 5.3718 8.0048 5.3718C9.47839 5.3718 10.6733 6.56703 10.6733 8.04105C10.6733 9.51506 9.47839 10.7103 8.0048 10.7103C6.53121 10.7103 5.33696 9.51506 5.33696 8.04105ZM3.89443 8.04105C3.89443 10.3119 5.73464 12.1526 8.0048 12.1526C10.275 12.1526 12.1152 10.3119 12.1152 8.04105C12.1152 5.77023 10.275 3.92949 8.0048 3.92949C5.73464 3.92949 3.89443 5.77023 3.89443 8.04105ZM11.3173 3.76647C11.3172 3.9565 11.3735 4.1423 11.479 4.30035C11.5845 4.45841 11.7344 4.58162 11.9099 4.65442C12.0854 4.72721 12.2786 4.74632 12.4649 4.70932C12.6513 4.67232 12.8225 4.58087 12.9568 4.44655C13.0912 4.31222 13.1828 4.14105 13.2199 3.95468C13.2571 3.76831 13.2381 3.5751 13.1655 3.3995C13.0929 3.2239 12.9698 3.07379 12.8119 2.96814C12.654 2.8625 12.4683 2.80607 12.2783 2.806H12.2779C12.0232 2.80612 11.779 2.90733 11.5989 3.08742C11.4188 3.26751 11.3175 3.51174 11.3173 3.76647V3.76647ZM4.77086 14.5586C3.99042 14.5231 3.56623 14.3931 3.28434 14.2832C2.91061 14.1377 2.64395 13.9643 2.36359 13.6843C2.08323 13.4042 1.90969 13.1377 1.76483 12.7639C1.65494 12.482 1.52495 12.0576 1.48947 11.2769C1.45066 10.4329 1.44291 10.1794 1.44291 8.04111C1.44291 5.90283 1.4513 5.64999 1.48947 4.80528C1.52501 4.02462 1.65597 3.60101 1.76483 3.31832C1.91033 2.94449 2.08362 2.67776 2.36359 2.39731C2.64357 2.11687 2.90997 1.94328 3.28434 1.79838C3.56611 1.68846 3.99042 1.55843 4.77086 1.52294C5.61463 1.48412 5.86809 1.47637 8.0048 1.47637C10.1415 1.47637 10.3952 1.48476 11.2397 1.52294C12.0201 1.55849 12.4436 1.68949 12.7262 1.79838C13.1 1.94328 13.3666 2.11726 13.647 2.39731C13.9273 2.67737 14.1002 2.94449 14.2457 3.31832C14.3556 3.60017 14.4856 4.02462 14.5211 4.80528C14.5599 5.64999 14.5676 5.90283 14.5676 8.04111C14.5676 10.1794 14.5599 10.4322 14.5211 11.2769C14.4856 12.0576 14.3549 12.4819 14.2457 12.7639C14.1002 13.1377 13.9269 13.4045 13.647 13.6843C13.367 13.9641 13.1 14.1377 12.7262 14.2832C12.4445 14.3931 12.0201 14.5232 11.2397 14.5586C10.3959 14.5975 10.1425 14.6052 8.0048 14.6052C5.86713 14.6052 5.61437 14.5975 4.77086 14.5586V14.5586ZM4.70458 0.0824266C3.85242 0.121245 3.27012 0.256405 2.76159 0.454341C2.23494 0.658746 1.7891 0.932974 1.34359 1.37791C0.898075 1.82285 0.624631 2.26952 0.420284 2.79632C0.222405 3.30532 0.0872843 3.88747 0.0484771 4.73987C0.00902942 5.59362 0 5.86657 0 8.04105C0 10.2155 0.00902942 10.4885 0.0484771 11.3422C0.0872843 12.1947 0.222405 12.7768 0.420284 13.2858C0.624631 13.8123 0.898139 14.2594 1.34359 14.7042C1.78904 15.1489 2.23494 15.4228 2.76159 15.6278C3.27108 15.8257 3.85242 15.9608 4.70458 15.9997C5.55853 16.0385 5.83095 16.0482 8.0048 16.0482C10.1786 16.0482 10.4515 16.0391 11.305 15.9997C12.1572 15.9608 12.7392 15.8257 13.248 15.6278C13.7743 15.4228 14.2205 15.1491 14.666 14.7042C15.1115 14.2592 15.3844 13.8123 15.5893 13.2858C15.7872 12.7768 15.923 12.1946 15.9611 11.3422C15.9999 10.4878 16.009 10.2155 16.009 8.04105C16.009 5.86657 15.9999 5.59362 15.9611 4.73987C15.9223 3.88741 15.7872 3.305 15.5893 2.79632C15.3844 2.26984 15.1108 1.82356 14.666 1.37791C14.2212 0.932269 13.7743 0.658746 13.2486 0.454341C12.7392 0.256405 12.1572 0.120605 11.3057 0.0824266C10.4522 0.0436081 10.1793 0.0339355 8.00544 0.0339355C5.83159 0.0339355 5.55853 0.0429676 4.70458 0.0824266Z" fill="white"/>
</svg>
