<svg width="14" height="16" viewBox="0 0 14 16" fill="none" xmlns="http://www.w3.org/2000/svg">
<path d="M12.0207 3.40196C11.9146 3.3471 11.8112 3.28695 11.7111 3.22175C11.4199 3.02925 11.1529 2.80241 10.9159 2.54614C10.3229 1.86759 10.1014 1.1792 10.0198 0.697229H10.0231C9.95492 0.297172 9.98309 0.0383301 9.98735 0.0383301H7.28623V10.4831C7.28623 10.6233 7.28623 10.7619 7.28033 10.8989C7.28033 10.9159 7.27869 10.9316 7.27771 10.95C7.27771 10.9575 7.27771 10.9654 7.27607 10.9732C7.27607 10.9752 7.27607 10.9772 7.27607 10.9791C7.2476 11.3539 7.12747 11.7159 6.92624 12.0333C6.72502 12.3508 6.44888 12.6139 6.1221 12.7995C5.78152 12.9933 5.39632 13.0949 5.00449 13.0944C3.746 13.0944 2.72603 12.0682 2.72603 10.8009C2.72603 9.53356 3.746 8.50736 5.00449 8.50736C5.24272 8.50714 5.47948 8.54463 5.70598 8.61844L5.70926 5.86816C5.02165 5.77934 4.32309 5.83399 3.65765 6.02866C2.99222 6.22333 2.37435 6.55379 1.84302 6.9992C1.37745 7.40372 0.986051 7.88637 0.686424 8.42545C0.572402 8.62204 0.142201 9.412 0.0901051 10.6941C0.0573404 11.4218 0.275881 12.1757 0.380073 12.4873V12.4939C0.445603 12.6773 0.699529 13.3035 1.11335 13.8313C1.44704 14.2547 1.84128 14.6267 2.28338 14.9352V14.9286L2.28993 14.9352C3.59757 15.8237 5.04741 15.7654 5.04741 15.7654C5.29839 15.7553 6.13913 15.7654 7.0939 15.3129C8.15286 14.8113 8.75573 14.0639 8.75573 14.0639C9.14087 13.6174 9.44713 13.1085 9.66134 12.5591C9.90577 11.9165 9.98735 11.1459 9.98735 10.8379V5.29675C10.0201 5.3164 10.4565 5.60506 10.4565 5.60506C10.4565 5.60506 11.0853 6.00807 12.0663 6.27051C12.7701 6.45727 13.7183 6.49659 13.7183 6.49659V3.81512C13.386 3.85116 12.7114 3.74632 12.0207 3.40196Z" fill="white"/>
</svg>
