<svg width="128" height="24" viewBox="0 0 128 24" fill="none" xmlns="http://www.w3.org/2000/svg">
<path d="M17.6222 13.82C17.3681 14.071 17.2513 14.434 17.3092 14.79L18.1816 19.71C18.2552 20.127 18.0825 20.549 17.74 20.79C17.4044 21.04 16.9579 21.07 16.5918 20.87L12.2453 18.56C12.0942 18.478 11.9264 18.434 11.7547 18.429H11.4887C11.3965 18.443 11.3062 18.473 11.2237 18.519L6.87629 20.84C6.66137 20.95 6.41799 20.989 6.17952 20.95C5.59855 20.838 5.21091 20.274 5.3061 19.679L6.17952 14.759C6.23742 14.4 6.12064 14.035 5.86646 13.78L2.32275 10.28C2.02638 9.987 1.92333 9.547 2.05876 9.15C2.19026 8.754 2.52589 8.465 2.93119 8.4L7.80859 7.679C8.17954 7.64 8.50536 7.41 8.67219 7.07L10.8214 2.58C10.8724 2.48 10.9382 2.388 11.0177 2.31L11.106 2.24C11.1521 2.188 11.2051 2.145 11.264 2.11L11.3709 2.07L11.5378 2H11.9509C12.3199 2.039 12.6448 2.264 12.8145 2.6L14.9922 7.07C15.1492 7.397 15.4544 7.624 15.8067 7.679L20.6841 8.4C21.0963 8.46 21.4407 8.75 21.5772 9.15C21.7057 9.551 21.5948 9.991 21.2926 10.28L17.6222 13.82Z" fill="#63D782"/>
<path d="M43.6222 13.82C43.3681 14.071 43.2513 14.434 43.3092 14.79L44.1816 19.71C44.2552 20.127 44.0825 20.549 43.74 20.79C43.4044 21.04 42.9579 21.07 42.5918 20.87L38.2453 18.56C38.0942 18.478 37.9264 18.434 37.7547 18.429H37.4887C37.3965 18.443 37.3062 18.473 37.2237 18.519L32.8763 20.84C32.6614 20.95 32.418 20.989 32.1795 20.95C31.5985 20.838 31.2109 20.274 31.3061 19.679L32.1795 14.759C32.2374 14.4 32.1206 14.035 31.8665 13.78L28.3227 10.28C28.0264 9.987 27.9233 9.547 28.0588 9.15C28.1903 8.754 28.5259 8.465 28.9312 8.4L33.8086 7.679C34.1795 7.64 34.5054 7.41 34.6722 7.07L36.8214 2.58C36.8724 2.48 36.9382 2.388 37.0177 2.31L37.106 2.24C37.1521 2.188 37.2051 2.145 37.264 2.11L37.3709 2.07L37.5378 2H37.9509C38.3199 2.039 38.6448 2.264 38.8145 2.6L40.9922 7.07C41.1492 7.397 41.4544 7.624 41.8067 7.679L46.6841 8.4C47.0963 8.46 47.4407 8.75 47.5772 9.15C47.7057 9.551 47.5948 9.991 47.2926 10.28L43.6222 13.82Z" fill="#63D782"/>
<path d="M69.6222 13.82C69.3681 14.071 69.2513 14.434 69.3092 14.79L70.1816 19.71C70.2552 20.127 70.0825 20.549 69.74 20.79C69.4044 21.04 68.9579 21.07 68.5918 20.87L64.2453 18.56C64.0942 18.478 63.9264 18.434 63.7547 18.429H63.4887C63.3965 18.443 63.3062 18.473 63.2237 18.519L58.8763 20.84C58.6614 20.95 58.418 20.989 58.1795 20.95C57.5985 20.838 57.2109 20.274 57.3061 19.679L58.1795 14.759C58.2374 14.4 58.1206 14.035 57.8665 13.78L54.3227 10.28C54.0264 9.987 53.9233 9.547 54.0588 9.15C54.1903 8.754 54.5259 8.465 54.9312 8.4L59.8086 7.679C60.1795 7.64 60.5054 7.41 60.6722 7.07L62.8214 2.58C62.8724 2.48 62.9382 2.388 63.0177 2.31L63.106 2.24C63.1521 2.188 63.2051 2.145 63.264 2.11L63.3709 2.07L63.5378 2H63.9509C64.3199 2.039 64.6448 2.264 64.8145 2.6L66.9922 7.07C67.1492 7.397 67.4544 7.624 67.8067 7.679L72.6841 8.4C73.0963 8.46 73.4407 8.75 73.5772 9.15C73.7057 9.551 73.5948 9.991 73.2926 10.28L69.6222 13.82Z" fill="#63D782"/>
<path d="M95.6222 13.82C95.3681 14.071 95.2513 14.434 95.3092 14.79L96.1816 19.71C96.2552 20.127 96.0825 20.549 95.74 20.79C95.4044 21.04 94.9579 21.07 94.5918 20.87L90.2453 18.56C90.0942 18.478 89.9264 18.434 89.7547 18.429H89.4887C89.3965 18.443 89.3062 18.473 89.2237 18.519L84.8763 20.84C84.6614 20.95 84.418 20.989 84.1795 20.95C83.5985 20.838 83.2109 20.274 83.3061 19.679L84.1795 14.759C84.2374 14.4 84.1206 14.035 83.8665 13.78L80.3227 10.28C80.0264 9.987 79.9233 9.547 80.0588 9.15C80.1903 8.754 80.5259 8.465 80.9312 8.4L85.8086 7.679C86.1795 7.64 86.5054 7.41 86.6722 7.07L88.8214 2.58C88.8724 2.48 88.9382 2.388 89.0177 2.31L89.106 2.24C89.1521 2.188 89.2051 2.145 89.264 2.11L89.3709 2.07L89.5378 2H89.9509C90.3199 2.039 90.6448 2.264 90.8145 2.6L92.9922 7.07C93.1492 7.397 93.4544 7.624 93.8067 7.679L98.6841 8.4C99.0963 8.46 99.4407 8.75 99.5772 9.15C99.7057 9.551 99.5948 9.991 99.2926 10.28L95.6222 13.82Z" fill="#63D782"/>
<path d="M121.622 13.82C121.368 14.071 121.251 14.434 121.309 14.79L122.182 19.71C122.255 20.127 122.083 20.549 121.74 20.79C121.404 21.04 120.958 21.07 120.592 20.87L116.245 18.56C116.094 18.478 115.926 18.434 115.755 18.429H115.489C115.396 18.443 115.306 18.473 115.224 18.519L110.876 20.84C110.661 20.95 110.418 20.989 110.18 20.95C109.599 20.838 109.211 20.274 109.306 19.679L110.18 14.759C110.237 14.4 110.121 14.035 109.866 13.78L106.323 10.28C106.026 9.987 105.923 9.547 106.059 9.15C106.19 8.754 106.526 8.465 106.931 8.4L111.809 7.679C112.18 7.64 112.505 7.41 112.672 7.07L114.821 2.58C114.872 2.48 114.938 2.388 115.018 2.31L115.106 2.24C115.152 2.188 115.205 2.145 115.264 2.11L115.371 2.07L115.538 2H115.951C116.32 2.039 116.645 2.264 116.815 2.6L118.992 7.07C119.149 7.397 119.454 7.624 119.807 7.679L124.684 8.4C125.096 8.46 125.441 8.75 125.577 9.15C125.706 9.551 125.595 9.991 125.293 10.28L121.622 13.82Z" fill="#63D782"/>
</svg>
